<?xml version="1.0" encoding="UTF-8" standalone="no"?>
<svg viewBox="0 0 500 500" xmlns="http://www.w3.org/2000/svg">
  <!-- Background -->
  <rect x="0" y="0" width="500" height="500" fill="#f7f9fc" rx="40" ry="40" />
  <defs>
    <linearGradient id="connection-gradient" x1="0%" y1="0%" x2="100%" y2="100%">
      <stop offset="0%" stop-color="#00cec9" />
      <stop offset="50%" stop-color="#0984e3" />
      <stop offset="100%" stop-color="#6c5ce7" />
    </linearGradient>
  </defs>
  <circle cx="250" cy="130" r="22" fill="#0984e3" />
  <circle cx="345" cy="180" r="22" fill="#6c5ce7" />
  <circle cx="345" cy="280" r="22" fill="#6c5ce7" />
  <circle cx="250" cy="330" r="22" fill="#0984e3" />
  <circle cx="155" cy="280" r="22" fill="#00cec9" />
  <circle cx="155" cy="180" r="22" fill="#00cec9" />
  <line x1="250" y1="130" x2="345" y2="180" stroke="url(#connection-gradient)" stroke-width="6" />
  <line x1="345" y1="180" x2="345" y2="280" stroke="#6c5ce7" stroke-width="6" />
  <line x1="345" y1="280" x2="250" y2="330" stroke="url(#connection-gradient)" stroke-width="6" />
  <line x1="250" y1="330" x2="155" y2="280" stroke="url(#connection-gradient)" stroke-width="6" />
  <line x1="155" y1="280" x2="155" y2="180" stroke="#00cec9" stroke-width="6" />
  <line x1="155" y1="180" x2="250" y2="130" stroke="url(#connection-gradient)" stroke-width="6" />
  <line x1="250" y1="130" x2="345" y2="280" stroke="url(#connection-gradient)" stroke-width="3.5" opacity="0.7" />
  <line x1="250" y1="130" x2="155" y2="280" stroke="url(#connection-gradient)" stroke-width="3.5" opacity="0.7" />
  <line x1="345" y1="180" x2="250" y2="330" stroke="url(#connection-gradient)" stroke-width="3.5" opacity="0.7" />
  <line x1="155" y1="180" x2="250" y2="330" stroke="url(#connection-gradient)" stroke-width="3.5" opacity="0.7" />
  <line x1="345" y1="180" x2="155" y2="280" stroke="url(#connection-gradient)" stroke-width="3.5" opacity="0.7" />
  <line x1="155" y1="180" x2="345" y2="280" stroke="url(#connection-gradient)" stroke-width="3.5" opacity="0.7" />
  <circle cx="250" cy="230" r="70" stroke="#0984e3" stroke-width="2" fill="none" opacity="0.2" />
  <circle cx="250" cy="230" r="100" stroke="#0984e3" stroke-width="1.5" fill="none" opacity="0.1" />
  <text x="250" y="400" 
        font-family="Arial, sans-serif" 
        font-weight="800" 
        font-size="48" 
        text-anchor="middle" 
        fill="#2d3436">MODULATE</text>  
  <text x="250" y="430" 
        font-family="Arial, sans-serif" 
        font-weight="300" 
        font-size="18" 
        text-anchor="middle" 
        fill="#636e72">P2P COMMUNICATION</text>
</svg>